<svg width="34" height="34" viewBox="0 0 34 34" fill="none" xmlns="http://www.w3.org/2000/svg">
<path d="M8.67598 19.4465C9.18892 21.1917 10.2374 22.7316 11.6733 23.8485C13.1092 24.9653 14.8598 25.6026 16.6776 25.6702C18.4954 25.7378 20.2885 25.2323 21.8034 24.2252C23.3183 23.2181 24.4783 21.7604 25.1194 20.058C25.7606 18.3557 25.8505 16.4949 25.3764 14.7387C24.9023 12.9825 23.8881 11.4197 22.4774 10.2713C21.0666 9.12292 19.3306 8.447 17.5147 8.33909C15.6988 8.23119 13.895 8.69677 12.3582 9.67001L13.2106 11.016C14.4652 10.2215 15.9378 9.84143 17.4202 9.92952C18.9026 10.0176 20.3199 10.5694 21.4716 11.5069C22.6233 12.4444 23.4512 13.7202 23.8382 15.1539C24.2253 16.5876 24.1519 18.1067 23.6285 19.4965C23.105 20.8862 22.158 22.0763 20.9214 22.8984C19.6847 23.7206 18.2208 24.1332 16.7368 24.078C15.2528 24.0228 13.8237 23.5026 12.6515 22.5909C11.4793 21.6791 10.6233 20.422 10.2046 18.9972L8.67598 19.4465Z" fill="white"/>
<path d="M10.765 12.7405C10.0278 12.7207 9.56499 11.937 9.9035 11.2819L10.9606 9.23606C11.3215 8.53755 12.3102 8.50957 12.71 9.18656L13.9549 11.2943C14.3547 11.9713 13.8529 12.8236 13.0669 12.8025L10.765 12.7405Z" fill="white"/>
</svg>
