<svg width="75" height="47" viewBox="0 0 75 47" fill="none" xmlns="http://www.w3.org/2000/svg">
<path d="M24 10H75" stroke="white" stroke-width="3"/>
<path d="M24 23H56" stroke="white" stroke-width="3"/>
<path d="M24 36H44" stroke="white" stroke-width="4"/>
<path d="M7.748 35.984C7.748 34.952 8.084 34.13 8.756 33.518C9.428 32.894 10.328 32.582 11.456 32.582L17 32.582L17 34.904L11.618 34.904C11.078 34.904 10.658 35.036 10.358 35.3C10.058 35.564 9.908 35.936 9.908 36.416C9.908 36.944 10.082 37.358 10.43 37.658C10.778 37.946 11.282 38.09 11.942 38.09L17 38.09L17 40.412L11.618 40.412C11.078 40.412 10.658 40.544 10.358 40.808C10.058 41.072 9.908 41.444 9.908 41.924C9.908 42.44 10.082 42.854 10.43 43.166C10.778 43.466 11.282 43.616 11.942 43.616L17 43.616L17 45.938L8 45.938L8 43.616L8.954 43.616C8.15 43.076 7.748 42.242 7.748 41.114C7.748 40.01 8.18 39.194 9.044 38.666C8.18 38.066 7.748 37.172 7.748 35.984ZM13.454 28.6479C14.582 28.3359 15.146 27.4899 15.146 26.1099C15.146 25.2219 14.846 24.5499 14.246 24.0939L15.326 22.2219C16.61 23.1099 17.252 24.4179 17.252 26.1459C17.252 27.6339 16.802 28.8279 15.902 29.7279C15.002 30.6279 13.868 31.0779 12.5 31.0779C11.144 31.0779 10.016 30.6339 9.116 29.7459C8.204 28.8579 7.748 27.7179 7.748 26.3259C7.748 25.0059 8.204 23.9199 9.116 23.0679C10.028 22.2039 11.156 21.7719 12.5 21.7719C12.8 21.7719 13.118 21.8019 13.454 21.8619L13.454 28.6479ZM11.654 28.6839L11.654 24.0939C11.042 24.2259 10.586 24.5019 10.286 24.9219C9.986 25.3299 9.836 25.7979 9.836 26.3259C9.836 26.9499 9.998 27.4659 10.322 27.8739C10.634 28.2819 11.078 28.5519 11.654 28.6839ZM7.748 15.1469C7.748 14.1629 8.078 13.3529 8.738 12.7169C9.398 12.0689 10.31 11.7449 11.474 11.7449L17 11.7449L17 14.0669L11.762 14.0669C11.162 14.0669 10.706 14.2289 10.394 14.5529C10.07 14.8769 9.908 15.3089 9.908 15.8489C9.908 16.4489 10.094 16.9289 10.466 17.2889C10.838 17.6489 11.396 17.8289 12.14 17.8289L17 17.8289L17 20.1509L8 20.1509L8 17.8289L9.008 17.8289C8.168 17.2649 7.748 16.3709 7.748 15.1469ZM8 3.82222L8 1.50022L17 1.50022L17 3.82222L15.992 3.82222C16.832 4.38622 17.252 5.28022 17.252 6.50422C17.252 7.48822 16.922 8.30422 16.262 8.95222C15.602 9.58822 14.69 9.90622 13.526 9.90622L8 9.90622L8 7.58422L13.238 7.58422C13.838 7.58422 14.3 7.42222 14.624 7.09822C14.936 6.77422 15.092 6.34222 15.092 5.80222C15.092 5.20222 14.906 4.72222 14.534 4.36222C14.162 4.00222 13.604 3.82222 12.86 3.82222L8 3.82222Z" fill="white"/>
</svg>
