<svg width="89" height="106" viewBox="0 0 89 106" fill="none" xmlns="http://www.w3.org/2000/svg">
<g filter="url(#filter0_d)">
<path d="M9 14.8777C9 9.90713 13.0294 5.87769 18 5.87769H57.9083C60.2639 5.87769 62.5257 6.80125 64.208 8.45013L76.9586 20.9472C78.6857 22.6399 79.6589 24.9565 79.6589 27.3747V83.398C79.6589 88.3686 75.6295 92.3981 70.6589 92.3981H18C13.0294 92.3981 9 88.3686 9 83.3981V14.8777Z" fill="#3F4244"/>
<path d="M58.6294 13.1086C58.6294 11.3367 60.7632 10.44 62.0289 11.6799L76.1586 25.5211C77.4386 26.7749 76.5509 28.9498 74.7591 28.9498H60.6294C59.5248 28.9498 58.6294 28.0544 58.6294 26.9498V13.1086Z" fill="#FAFAFA"/>
</g>
<path d="M29.4116 52.9579H33.2836L29.9176 63.9579H26.3536L24.7696 58.3699L23.1856 63.9579H19.6216L16.2556 52.9579H20.1276L21.5796 58.9419L23.2296 52.9579H26.3096L27.9596 58.9419L29.4116 52.9579ZM37.3407 59.7999C37.7073 60.6946 38.5287 61.1419 39.8047 61.1419C40.5967 61.1419 41.264 60.8852 41.8067 60.3719L44.4467 62.2199C43.3613 63.5839 41.7847 64.2659 39.7167 64.2659C37.854 64.2659 36.358 63.7232 35.2287 62.6379C34.114 61.5379 33.5567 60.1519 33.5567 58.4799C33.5567 56.8226 34.1067 55.4366 35.2067 54.3219C36.3067 53.2072 37.7073 52.6499 39.4087 52.6499C41.0513 52.6499 42.408 53.1999 43.4787 54.2999C44.5493 55.3999 45.0847 56.7786 45.0847 58.4359C45.0847 58.9199 45.0333 59.3746 44.9307 59.7999H37.3407ZM37.2967 57.2699H41.5207C41.2273 56.2432 40.538 55.7299 39.4527 55.7299C38.3233 55.7299 37.6047 56.2432 37.2967 57.2699ZM53.429 52.6499C54.8957 52.6499 56.1204 53.2072 57.103 54.3219C58.1004 55.4219 58.599 56.8006 58.599 58.4579C58.599 60.1152 58.1004 61.5012 57.103 62.6159C56.1204 63.7159 54.8957 64.2659 53.429 64.2659C52.0944 64.2659 51.053 63.8259 50.305 62.9459V63.9579H46.653V48.5579H50.305V53.9699C51.053 53.0899 52.0944 52.6499 53.429 52.6499ZM50.943 60.1959C51.3684 60.6359 51.9257 60.8559 52.615 60.8559C53.3044 60.8559 53.8617 60.6359 54.287 60.1959C54.7124 59.7559 54.925 59.1766 54.925 58.4579C54.925 57.7392 54.7124 57.1599 54.287 56.7199C53.8617 56.2799 53.3044 56.0599 52.615 56.0599C51.9257 56.0599 51.3684 56.2799 50.943 56.7199C50.5177 57.1599 50.305 57.7392 50.305 58.4579C50.305 59.1766 50.5177 59.7559 50.943 60.1959ZM66.9642 52.6499C68.4309 52.6499 69.6555 53.2072 70.6382 54.3219C71.6355 55.4219 72.1342 56.8006 72.1342 58.4579C72.1342 60.1152 71.6355 61.5012 70.6382 62.6159C69.6555 63.7159 68.4309 64.2659 66.9642 64.2659C65.6295 64.2659 64.5882 63.8259 63.8402 62.9459V68.3579H60.1882V52.9579H63.8402V53.9699C64.5882 53.0899 65.6295 52.6499 66.9642 52.6499ZM64.4782 60.1959C64.9035 60.6359 65.4609 60.8559 66.1502 60.8559C66.8395 60.8559 67.3969 60.6359 67.8222 60.1959C68.2475 59.7559 68.4602 59.1766 68.4602 58.4579C68.4602 57.7392 68.2475 57.1599 67.8222 56.7199C67.3969 56.2799 66.8395 56.0599 66.1502 56.0599C65.4609 56.0599 64.9035 56.2799 64.4782 56.7199C64.0529 57.1599 63.8402 57.7392 63.8402 58.4579C63.8402 59.1766 64.0529 59.7559 64.4782 60.1959Z" fill="white"/>
<defs>
<filter id="filter0_d" x="0" y="0.877686" width="88.6589" height="104.52" filterUnits="userSpaceOnUse" color-interpolation-filters="sRGB">
<feFlood flood-opacity="0" result="BackgroundImageFix"/>
<feColorMatrix in="SourceAlpha" type="matrix" values="0 0 0 0 0 0 0 0 0 0 0 0 0 0 0 0 0 0 127 0" result="hardAlpha"/>
<feOffset dy="4"/>
<feGaussianBlur stdDeviation="4.5"/>
<feComposite in2="hardAlpha" operator="out"/>
<feColorMatrix type="matrix" values="0 0 0 0 0.223529 0 0 0 0 0.247059 0 0 0 0 0.27451 0 0 0 1 0"/>
<feBlend mode="normal" in2="BackgroundImageFix" result="effect1_dropShadow"/>
<feBlend mode="normal" in="SourceGraphic" in2="effect1_dropShadow" result="shape"/>
</filter>
</defs>
</svg>
