<svg width="89" height="105" viewBox="0 0 89 105" fill="none" xmlns="http://www.w3.org/2000/svg">
<g filter="url(#filter0_d)">
<path d="M9 14.0309C9 9.06033 13.0294 5.03088 18 5.03088H57.9083C60.2639 5.03088 62.5257 5.95445 64.208 7.60333L76.9586 20.1004C78.6857 21.7931 79.6589 24.1097 79.6589 26.5279V82.5512C79.6589 87.5218 75.6295 91.5513 70.6589 91.5513H18C13.0294 91.5513 9 87.5218 9 82.5513V14.0309Z" fill="#F58808"/>
<path d="M58.6294 12.2618C58.6294 10.4899 60.7632 9.59315 62.0289 10.8331L76.1586 24.6743C77.4386 25.9281 76.5509 28.103 74.7591 28.103H60.6294C59.5248 28.103 58.6294 27.2076 58.6294 26.103V12.2618Z" fill="#FAFAFA"/>
</g>
<path d="M32.2347 51.8031C33.7014 51.8031 34.926 52.3604 35.9087 53.4751C36.906 54.5751 37.4047 55.9538 37.4047 57.6111C37.4047 59.2684 36.906 60.6544 35.9087 61.7691C34.926 62.8691 33.7014 63.4191 32.2347 63.4191C30.9 63.4191 29.8587 62.9791 29.1107 62.0991V67.5111H25.4587V52.1111H29.1107V53.1231C29.8587 52.2431 30.9 51.8031 32.2347 51.8031ZM29.7487 59.3491C30.174 59.7891 30.7314 60.0091 31.4207 60.0091C32.11 60.0091 32.6674 59.7891 33.0927 59.3491C33.518 58.9091 33.7307 58.3298 33.7307 57.6111C33.7307 56.8924 33.518 56.3131 33.0927 55.8731C32.6674 55.4331 32.11 55.2131 31.4207 55.2131C30.7314 55.2131 30.174 55.4331 29.7487 55.8731C29.3234 56.3131 29.1107 56.8924 29.1107 57.6111C29.1107 58.3298 29.3234 58.9091 29.7487 59.3491ZM45.7038 51.8031C46.8918 51.8031 47.8598 52.2138 48.6078 53.0351C49.3705 53.8418 49.7518 55.0078 49.7518 56.5331V63.1111H46.0998V56.9951C46.0998 56.4231 45.9458 55.9904 45.6378 55.6971C45.3445 55.4038 44.9485 55.2571 44.4498 55.2571C43.8778 55.2571 43.4305 55.4331 43.1078 55.7851C42.7998 56.1224 42.6458 56.6138 42.6458 57.2591V63.1111H38.9938V52.1111H42.6458V53.2111C43.3058 52.2724 44.3252 51.8031 45.7038 51.8031ZM59.5886 52.1111H63.1966V62.6711C63.1966 63.5511 63.0279 64.3284 62.6906 65.0031C62.3679 65.6924 61.9279 66.2351 61.3706 66.6311C60.8133 67.0418 60.1973 67.3424 59.5226 67.5331C58.8626 67.7384 58.1586 67.8411 57.4106 67.8411C56.1933 67.8411 55.1079 67.6138 54.1546 67.1591C53.2013 66.7044 52.4826 66.0371 51.9986 65.1571L55.0346 63.3971C55.5626 64.2331 56.3399 64.6511 57.3666 64.6511C58.0266 64.6511 58.5619 64.4824 58.9726 64.1451C59.3833 63.8078 59.5886 63.3164 59.5886 62.6711V61.6151C58.8406 62.5244 57.8139 62.9791 56.5086 62.9791C54.9979 62.9791 53.7439 62.4364 52.7466 61.3511C51.7639 60.2658 51.2726 58.9458 51.2726 57.3911C51.2726 55.8364 51.7639 54.5164 52.7466 53.4311C53.7439 52.3458 54.9979 51.8031 56.5086 51.8031C57.8139 51.8031 58.8406 52.2578 59.5886 53.1671V52.1111ZM55.5626 59.0411C56.0026 59.4664 56.5673 59.6791 57.2566 59.6791C57.9459 59.6791 58.5033 59.4664 58.9286 59.0411C59.3686 58.6011 59.5886 58.0511 59.5886 57.3911C59.5886 56.7311 59.3686 56.1884 58.9286 55.7631C58.5033 55.3231 57.9459 55.1031 57.2566 55.1031C56.5673 55.1031 56.0026 55.3231 55.5626 55.7631C55.1373 56.1884 54.9246 56.7311 54.9246 57.3911C54.9246 58.0511 55.1373 58.6011 55.5626 59.0411Z" fill="white"/>
<defs>
<filter id="filter0_d" x="0" y="0.0308838" width="88.6589" height="104.52" filterUnits="userSpaceOnUse" color-interpolation-filters="sRGB">
<feFlood flood-opacity="0" result="BackgroundImageFix"/>
<feColorMatrix in="SourceAlpha" type="matrix" values="0 0 0 0 0 0 0 0 0 0 0 0 0 0 0 0 0 0 127 0" result="hardAlpha"/>
<feOffset dy="4"/>
<feGaussianBlur stdDeviation="4.5"/>
<feComposite in2="hardAlpha" operator="out"/>
<feColorMatrix type="matrix" values="0 0 0 0 0.956863 0 0 0 0 0.588235 0 0 0 0 0.156863 0 0 0 1 0"/>
<feBlend mode="normal" in2="BackgroundImageFix" result="effect1_dropShadow"/>
<feBlend mode="normal" in="SourceGraphic" in2="effect1_dropShadow" result="shape"/>
</filter>
</defs>
</svg>
