<svg width="90" height="106" viewBox="0 0 90 106" fill="none" xmlns="http://www.w3.org/2000/svg">
<g filter="url(#filter0_d)">
<path d="M9.8291 14.7246C9.8291 9.75406 13.8585 5.72461 18.8291 5.72461H58.7374C61.093 5.72461 63.3548 6.64818 65.0371 8.29706L77.7877 20.7941C79.5148 22.4868 80.488 24.8034 80.488 27.2217V83.245C80.488 88.2155 76.4586 92.245 71.488 92.245H18.8291C13.8585 92.245 9.8291 88.2155 9.8291 83.245V14.7246Z" fill="#1B7CEE"/>
<path d="M59.4585 12.9555C59.4585 11.1836 61.5923 10.2869 62.858 11.5268L76.9878 25.368C78.2677 26.6219 77.38 28.7967 75.5882 28.7967H61.4585C60.3539 28.7967 59.4585 27.9013 59.4585 26.7967V12.9555Z" fill="#FAFAFA"/>
</g>
<path d="M33.2264 51.2868C32.8157 51.6975 32.3244 51.9028 31.7524 51.9028C31.1804 51.9028 30.6817 51.6975 30.2564 51.2868C29.8457 50.8615 29.6404 50.3628 29.6404 49.7908C29.6404 49.2188 29.8457 48.7275 30.2564 48.3168C30.6817 47.9061 31.1804 47.7008 31.7524 47.7008C32.3244 47.7008 32.8157 47.9061 33.2264 48.3168C33.6517 48.7275 33.8644 49.2188 33.8644 49.7908C33.8644 50.3628 33.6517 50.8615 33.2264 51.2868ZM29.9264 63.8048V52.8048H33.5784V63.8048C33.5784 65.5355 33.1531 66.7821 32.3024 67.5448C31.4517 68.3075 30.1244 68.6375 28.3204 68.5348V65.1468C28.8777 65.1761 29.2811 65.0808 29.5304 64.8608C29.7944 64.6555 29.9264 64.3035 29.9264 63.8048ZM42.4739 52.4968C43.9406 52.4968 45.1653 53.0541 46.1479 54.1688C47.1453 55.2688 47.6439 56.6475 47.6439 58.3048C47.6439 59.9621 47.1453 61.3481 46.1479 62.4628C45.1653 63.5628 43.9406 64.1128 42.4739 64.1128C41.1393 64.1128 40.0979 63.6728 39.3499 62.7928V68.2048H35.6979V52.8048H39.3499V53.8168C40.0979 52.9368 41.1393 52.4968 42.4739 52.4968ZM39.9879 60.0428C40.4133 60.4828 40.9706 60.7028 41.6599 60.7028C42.3493 60.7028 42.9066 60.4828 43.3319 60.0428C43.7573 59.6028 43.9699 59.0235 43.9699 58.3048C43.9699 57.5861 43.7573 57.0068 43.3319 56.5668C42.9066 56.1268 42.3493 55.9068 41.6599 55.9068C40.9706 55.9068 40.4133 56.1268 39.9879 56.5668C39.5626 57.0068 39.3499 57.5861 39.3499 58.3048C39.3499 59.0235 39.5626 59.6028 39.9879 60.0428ZM57.1091 52.8048H60.7171V63.3648C60.7171 64.2448 60.5484 65.0221 60.2111 65.6968C59.8884 66.3861 59.4484 66.9288 58.8911 67.3248C58.3338 67.7355 57.7178 68.0361 57.0431 68.2268C56.3831 68.4321 55.6791 68.5348 54.9311 68.5348C53.7138 68.5348 52.6284 68.3075 51.6751 67.8528C50.7218 67.3981 50.0031 66.7308 49.5191 65.8508L52.5551 64.0908C53.0831 64.9268 53.8604 65.3448 54.8871 65.3448C55.5471 65.3448 56.0824 65.1761 56.4931 64.8388C56.9038 64.5015 57.1091 64.0101 57.1091 63.3648V62.3088C56.3611 63.2181 55.3344 63.6728 54.0291 63.6728C52.5184 63.6728 51.2644 63.1301 50.2671 62.0448C49.2844 60.9595 48.7931 59.6395 48.7931 58.0848C48.7931 56.5301 49.2844 55.2101 50.2671 54.1248C51.2644 53.0395 52.5184 52.4968 54.0291 52.4968C55.3344 52.4968 56.3611 52.9515 57.1091 53.8608V52.8048ZM53.0831 59.7348C53.5231 60.1601 54.0878 60.3728 54.7771 60.3728C55.4664 60.3728 56.0238 60.1601 56.4491 59.7348C56.8891 59.2948 57.1091 58.7448 57.1091 58.0848C57.1091 57.4248 56.8891 56.8821 56.4491 56.4568C56.0238 56.0168 55.4664 55.7968 54.7771 55.7968C54.0878 55.7968 53.5231 56.0168 53.0831 56.4568C52.6578 56.8821 52.4451 57.4248 52.4451 58.0848C52.4451 58.7448 52.6578 59.2948 53.0831 59.7348Z" fill="white"/>
<defs>
<filter id="filter0_d" x="0.829102" y="0.724609" width="88.6589" height="104.52" filterUnits="userSpaceOnUse" color-interpolation-filters="sRGB">
<feFlood flood-opacity="0" result="BackgroundImageFix"/>
<feColorMatrix in="SourceAlpha" type="matrix" values="0 0 0 0 0 0 0 0 0 0 0 0 0 0 0 0 0 0 127 0" result="hardAlpha"/>
<feOffset dy="4"/>
<feGaussianBlur stdDeviation="4.5"/>
<feComposite in2="hardAlpha" operator="out"/>
<feColorMatrix type="matrix" values="0 0 0 0 0.352941 0 0 0 0 0.615686 0 0 0 0 0.929412 0 0 0 1 0"/>
<feBlend mode="normal" in2="BackgroundImageFix" result="effect1_dropShadow"/>
<feBlend mode="normal" in="SourceGraphic" in2="effect1_dropShadow" result="shape"/>
</filter>
</defs>
</svg>
